<svg width="1133" height="284" viewBox="0 0 1133 284" fill="none" xmlns="http://www.w3.org/2000/svg">
<path d="M111.5 0L0 63.5V253L56 220.5V157.5L222.5 253V189.5L167 157.5L222 126L223 63L111.5 0Z" fill="black"/>
<path d="M111.638 125.585V62.2656L167.102 93.6246L111.638 125.585Z" fill="white"/>
<path d="M111.637 125.585L56.1689 94.2276L111.637 62.2656V125.585Z" fill="white"/>
<path d="M367.637 54.9362H342.95V92.3534H366.866C372.009 92.3534 376.06 90.4247 379.017 86.5672C382.103 82.7098 383.646 78.4023 383.646 73.6448C383.646 69.0159 382.167 64.7727 379.21 60.9152C376.381 56.9292 372.524 54.9362 367.637 54.9362ZM379.981 115.884L412.962 162.945H379.017L349.315 117.041H342.95V162.945H314.598V30.0557H368.988C383.132 30.0557 393.997 34.3632 401.583 42.9781C409.298 51.4645 413.155 61.6867 413.155 73.6448C413.155 83.8027 410.327 92.8034 404.669 100.647C399.011 108.49 390.782 113.569 379.981 115.884Z" fill="black"/>
<path d="M496.714 162.945V152.722C494.143 156.58 490.156 159.537 484.756 161.594C479.484 163.652 474.727 164.68 470.484 164.68C458.397 164.68 447.725 160.373 438.467 151.758C429.209 143.014 424.58 131.699 424.58 117.813C424.58 103.926 429.209 92.6748 438.467 84.0599C447.725 75.3164 458.397 70.9446 470.484 70.9446C474.727 70.9446 479.356 71.8447 484.37 73.6448C489.514 75.4449 493.628 78.5309 496.714 82.9027V72.8733H523.33V162.945H496.714ZM459.104 102.576C454.604 106.562 452.354 111.641 452.354 117.813C452.354 123.984 454.604 129.128 459.104 133.242C463.733 137.228 469.005 139.221 474.92 139.221C480.706 139.221 485.785 137.293 490.156 133.435C494.528 129.449 496.714 124.242 496.714 117.813C496.714 111.383 494.528 106.24 490.156 102.383C485.785 98.3967 480.706 96.4037 474.92 96.4037C469.005 96.4037 463.733 98.461 459.104 102.576Z" fill="black"/>
<path d="M574.886 115.305V162.945H548.077V72.8733H574.886V85.9886C577.329 81.4883 580.929 77.888 585.687 75.1878C590.573 72.359 595.652 70.9446 600.924 70.9446C611.339 70.9446 619.44 74.1591 625.226 80.5882C631.012 87.0173 633.905 96.5323 633.905 109.133V162.945H607.096V114.919C607.096 109.133 605.681 104.697 602.853 101.611C600.024 98.5253 596.231 96.9823 591.473 96.9823C580.415 96.9823 574.886 103.09 574.886 115.305Z" fill="black"/>
<path d="M723.66 117.62C723.66 111.191 721.474 106.047 717.102 102.19C712.859 98.3324 707.78 96.4037 701.865 96.4037C695.951 96.4037 690.872 98.3967 686.628 102.383C682.385 106.369 680.264 111.448 680.264 117.62C680.264 124.177 682.385 129.513 686.628 133.628C690.872 137.614 695.951 139.607 701.865 139.607C707.651 139.607 712.73 137.55 717.102 133.435C721.474 129.192 723.66 123.92 723.66 117.62ZM676.599 169.309C678.142 173.424 681.164 176.831 685.664 179.532C690.164 182.36 694.729 183.775 699.358 183.775C717.359 183.775 725.653 173.103 724.238 151.758C722.181 155.744 718.581 158.959 713.438 161.402C708.423 163.716 703.023 164.873 697.236 164.873C685.15 164.873 674.606 160.502 665.605 151.758C656.733 143.014 652.297 131.828 652.297 118.198C652.297 104.311 656.733 92.9963 665.605 84.2528C674.606 75.3806 685.15 70.9446 697.236 70.9446C703.023 70.9446 708.423 72.1661 713.438 74.6092C718.452 76.9236 722.053 80.0739 724.238 84.0599V72.8733H750.276V150.408C750.276 169.438 745.84 183.775 736.968 193.418C728.224 203.062 715.688 207.884 699.358 207.884C689.457 207.884 680.521 205.312 672.549 200.169C664.705 195.154 658.855 188.404 654.997 179.917C657.312 178.76 660.912 176.96 665.798 174.517C670.813 172.202 674.413 170.467 676.599 169.309Z" fill="black"/>
<path d="M831.359 54.9362H806.672V92.3534H830.588C835.731 92.3534 839.781 90.4247 842.739 86.5672C845.825 82.7098 847.368 78.4023 847.368 73.6448C847.368 69.0159 845.889 64.7727 842.932 60.9152C840.103 56.9292 836.245 54.9362 831.359 54.9362ZM843.703 115.884L876.684 162.945H842.739L813.036 117.041H806.672V162.945H778.32V30.0557H832.709C846.853 30.0557 857.719 34.3632 865.305 42.9781C873.02 51.4645 876.877 61.6867 876.877 73.6448C876.877 83.8027 874.048 92.8034 868.391 100.647C862.733 108.49 854.504 113.569 843.703 115.884Z" fill="black"/>
<path d="M956.964 133.242L976.444 146.55C968.215 158.766 954.521 164.873 935.363 164.873C922.119 164.873 910.932 160.502 901.803 151.758C892.802 142.886 888.302 131.506 888.302 117.62C888.302 103.733 892.802 92.482 901.803 83.867C910.932 75.2521 922.119 70.9446 935.363 70.9446C948.478 70.9446 959.407 75.3806 968.151 84.2528C977.023 92.9963 981.459 104.376 981.459 118.391C981.459 120.834 981.33 123.599 981.073 126.685H915.111C915.754 131.571 918.261 135.3 922.633 137.871C927.133 140.443 932.019 141.729 937.291 141.729C946.035 141.729 952.593 138.9 956.964 133.242ZM915.497 109.905H954.457C953.814 104.89 951.564 101.097 947.706 98.5253C943.978 95.8251 939.927 94.475 935.555 94.475C931.184 94.475 927.005 95.7608 923.019 98.3324C919.033 100.904 916.525 104.761 915.497 109.905Z" fill="black"/>
<path d="M1063.01 133.242L1082.49 146.55C1074.26 158.766 1060.56 164.873 1041.4 164.873C1028.16 164.873 1016.97 160.502 1007.84 151.758C998.844 142.886 994.344 131.506 994.344 117.62C994.344 103.733 998.844 92.482 1007.84 83.867C1016.97 75.2521 1028.16 70.9446 1041.4 70.9446C1054.52 70.9446 1065.45 75.3806 1074.19 84.2528C1083.07 92.9963 1087.5 104.376 1087.5 118.391C1087.5 120.834 1087.37 123.599 1087.12 126.685H1021.15C1021.8 131.571 1024.3 135.3 1028.68 137.871C1033.18 140.443 1038.06 141.729 1043.33 141.729C1052.08 141.729 1058.63 138.9 1063.01 133.242ZM1021.54 109.905H1060.5C1059.86 104.89 1057.61 101.097 1053.75 98.5253C1050.02 95.8251 1045.97 94.475 1041.6 94.475C1037.23 94.475 1033.05 95.7608 1029.06 98.3324C1025.07 100.904 1022.57 104.761 1021.54 109.905Z" fill="black"/>
<path d="M1105.79 23.8838H1132.6V162.945H1105.79V23.8838Z" fill="black"/>
<path d="M788.5 258.203H799.971C800.051 262.086 801.813 265.57 805.256 268.653C808.74 271.696 813.044 273.217 818.169 273.217C823.254 273.217 827.238 272.016 830.121 269.614C833.043 267.211 834.765 264.269 835.286 260.785C835.446 258.583 835.166 256.601 834.445 254.839C833.724 253.078 832.623 251.616 831.142 250.455C829.7 249.294 828.139 248.333 826.457 247.572C824.775 246.812 822.914 246.191 820.872 245.71L809.941 242.948C796.167 239.464 789.281 232.097 789.281 220.846C789.281 216.242 790.562 212.098 793.125 208.414C795.687 204.73 799.05 201.908 803.214 199.946C807.378 197.984 811.863 197.003 816.667 197.003C824.555 197.003 831.082 199.265 836.247 203.79C841.412 208.314 843.994 214.32 843.994 221.807H832.583C832.583 217.643 831.082 214.3 828.079 211.777C825.076 209.215 821.232 207.934 816.547 207.934C812.263 207.934 808.54 209.135 805.376 211.537C802.253 213.899 800.692 216.962 800.692 220.726C800.692 226.612 804.716 230.536 812.764 232.498L823.814 235.2C831.862 237.282 837.848 240.585 841.772 245.11C845.736 249.594 847.297 255.16 846.457 261.806C845.656 268.172 842.733 273.458 837.688 277.662C832.683 281.826 826.177 283.908 818.169 283.908C813.965 283.908 809.981 283.187 806.217 281.746C802.494 280.304 799.351 278.402 796.788 276.04C794.226 273.678 792.204 270.935 790.722 267.812C789.241 264.689 788.5 261.486 788.5 258.203Z" fill="black"/>
<path d="M855.345 234.72V225.291H865.675V203.609H876.906V225.291H889.038V234.72H876.906V282.707H865.675V234.72H855.345Z" fill="black"/>
<path d="M900.99 258.503V225.291H912.221V257.722C912.221 262.527 913.322 266.271 915.524 268.953C917.766 271.636 920.849 272.977 924.773 272.977C926.895 272.977 928.877 272.677 930.719 272.076C932.601 271.476 934.322 270.555 935.884 269.313C937.445 268.032 938.687 266.291 939.607 264.088C940.528 261.846 940.989 259.244 940.989 256.281V225.291H952.16V282.707H940.989V274.118C939.387 277.321 936.885 279.764 933.481 281.445C930.078 283.087 926.635 283.908 923.151 283.908C915.984 283.908 910.479 281.706 906.635 277.301C902.792 272.857 900.91 266.591 900.99 258.503Z" fill="black"/>
<path d="M966.994 253.938C966.994 248.013 968.315 242.748 970.958 238.143C973.601 233.539 977.084 230.035 981.408 227.633C985.772 225.23 990.597 224.029 995.882 224.029C1000.29 224.029 1004.31 224.89 1007.95 226.612C1011.6 228.293 1014.34 230.716 1016.18 233.879V194H1027.41V282.707H1016.18V273.878C1014.34 277.041 1011.56 279.503 1007.83 281.265C1004.11 283.027 1000.17 283.908 996.002 283.908C990.757 283.908 985.933 282.707 981.528 280.304C977.164 277.862 973.641 274.338 970.958 269.734C968.315 265.089 966.994 259.824 966.994 253.938ZM978.465 253.818C978.465 259.384 980.247 263.968 983.811 267.572C987.374 271.175 991.778 272.977 997.023 272.977C1002.31 272.977 1006.79 271.255 1010.48 267.812C1014.2 264.329 1016.06 259.664 1016.06 253.818C1016.06 249.895 1015.1 246.471 1013.18 243.548C1011.26 240.585 1008.88 238.423 1006.03 237.062C1003.23 235.661 1000.23 234.96 997.023 234.96C991.738 234.96 987.314 236.702 983.75 240.185C980.227 243.668 978.465 248.213 978.465 253.818Z" fill="black"/>
<path d="M1046.21 209.315C1044.69 207.914 1043.93 206.172 1043.93 204.09C1043.93 202.008 1044.69 200.286 1046.21 198.925C1047.73 197.523 1049.55 196.823 1051.68 196.823C1053.84 196.823 1055.66 197.523 1057.14 198.925C1058.66 200.286 1059.42 202.008 1059.42 204.09C1059.42 206.172 1058.66 207.914 1057.14 209.315C1055.66 210.676 1053.84 211.357 1051.68 211.357C1049.55 211.357 1047.73 210.676 1046.21 209.315ZM1046.15 282.707V225.291H1057.2V282.707H1046.15Z" fill="black"/>
<path d="M1076.18 269.614C1073.46 264.969 1072.1 259.704 1072.1 253.818C1072.1 247.933 1073.46 242.708 1076.18 238.143C1078.94 233.539 1082.59 230.035 1087.11 227.633C1091.64 225.23 1096.64 224.029 1102.13 224.029C1107.61 224.029 1112.62 225.23 1117.14 227.633C1121.71 230.035 1125.37 233.539 1128.13 238.143C1130.89 242.708 1132.28 247.933 1132.28 253.818C1132.28 259.704 1130.89 264.969 1128.13 269.614C1125.37 274.258 1121.71 277.802 1117.14 280.244C1112.58 282.687 1107.57 283.908 1102.13 283.908C1096.68 283.908 1091.68 282.687 1087.11 280.244C1082.59 277.802 1078.94 274.258 1076.18 269.614ZM1083.15 253.818C1083.15 259.544 1084.97 264.188 1088.61 267.752C1092.3 271.315 1096.8 273.097 1102.13 273.097C1107.41 273.097 1111.88 271.315 1115.52 267.752C1119.2 264.188 1121.04 259.544 1121.04 253.818C1121.04 248.173 1119.22 243.628 1115.58 240.185C1111.94 236.702 1107.45 234.96 1102.13 234.96C1096.8 234.96 1092.3 236.702 1088.61 240.185C1084.97 243.628 1083.15 248.173 1083.15 253.818Z" fill="black"/>
<circle cx="1102.63" cy="253.207" r="20.5" fill="black"/>
<path d="M1096.13 268.707V240.707L1118.13 254.707L1096.13 268.707ZM1100.13 261.407L1110.63 254.707L1106.13 257.578L1100.13 261.407Z" fill="white"/>
</svg>
